<svg width="193" height="218" viewBox="0 0 193 218" fill="none" xmlns="http://www.w3.org/2000/svg">
<path d="M169.018 120.97C168.988 121.17 168.968 121.38 168.958 121.62C168.878 125.23 168.568 128.82 167.998 132.4C161.988 170.21 126.068 197.28 88.0279 192.63C48.2079 187.77 19.908 151.8 24.568 111.99C28.408 79.21 54.568 52.94 87.208 48.74L76.918 64.22L91.608 73.99L118.538 33.48C119.948 31.36 119.368 28.49 117.248 27.08L112.988 24.25L76.808 0L66.988 14.66L82.638 25.14C78.148 25.79 73.708 26.76 69.328 28.07C15.388 44.22 -13.552 102.32 6.24798 154.65C27.078 209.69 91.968 233.8 143.198 204.79C175.208 186.66 191.578 158.34 192.998 121.48C192.998 121.3 192.998 121.13 192.998 120.97H169.008H169.018Z" fill="#0FD15D"/>
<path d="M126.108 138.95C125.118 136.43 123.618 134.24 121.598 132.37C119.578 130.5 117.048 128.86 114.008 127.46C110.968 126.06 107.388 124.64 103.278 123.2C101.298 122.55 99.488 121.92 97.858 121.31C96.218 120.7 94.778 120.01 93.518 119.26C92.258 118.5 91.288 117.66 90.608 116.72C89.928 115.79 89.578 114.63 89.578 113.27C89.578 110.97 90.508 109.26 92.378 108.14C94.238 107.03 97.298 106.47 101.558 106.47C105.358 106.47 108.608 106.89 111.318 107.71C112.468 108.06 113.568 108.43 114.618 108.83C116.888 109.68 119.448 108.57 120.288 106.4L122.438 100.85C123.238 98.77 122.188 96.44 120.018 95.61C118.298 94.95 116.368 94.32 114.228 93.73C111.878 93.07 109.218 92.64 106.328 92.39V83.41C106.328 82.47 105.568 81.71 104.628 81.71H92.898C91.958 81.71 91.198 82.47 91.198 83.41V92.98C90.208 93.18 89.248 93.41 88.328 93.68C84.748 94.72 81.708 96.22 79.198 98.16C76.688 100.1 74.748 102.46 73.378 105.23C72.008 108 71.328 111.11 71.328 114.57C71.328 118.03 71.978 120.96 73.268 123.37C74.558 125.78 76.238 127.83 78.288 129.52C80.338 131.21 82.658 132.61 85.248 133.73C87.838 134.85 90.418 135.83 93.008 136.7C98.938 138.57 103.128 140.32 105.558 141.93C107.988 143.55 109.208 145.58 109.208 148.03C109.208 149.18 109.018 150.23 108.638 151.16C108.258 152.1 107.568 152.91 106.588 153.59C105.598 154.27 104.288 154.81 102.648 155.21C101.008 155.61 98.938 155.8 96.428 155.8C91.408 155.8 87.168 155.31 83.708 154.34C80.248 153.37 77.338 152.27 74.978 151.05L69.958 164.43C71.018 165.01 72.338 165.62 73.898 166.27C75.458 166.92 77.318 167.53 79.488 168.1C81.658 168.68 84.148 169.16 86.958 169.56C88.288 169.75 89.708 169.89 91.198 169.99V178.11C91.198 179.05 91.958 179.81 92.898 179.81H104.628C105.568 179.81 106.328 179.05 106.328 178.11V169.45C111.928 168.58 116.438 166.9 119.818 164.39C124.988 160.54 127.578 155.13 127.578 148.15C127.578 144.55 127.088 141.49 126.098 138.97L126.108 138.95Z" fill="#0FD15D"/>
</svg>
